# xmcd
#
# Track frame offsets:
#	150
#	17192
#	31473
#	49848
#	66060
#	77010
#	92309
#	112739
#	129291
#	146410
#	161740
#	177443
#	193992
#	212485
#
# Disc length: 2999 seconds
#
# Revision: 1
# Processed by: cddbd v1.5.2PL0 Copyright (c) Steve Scherf et al.
# Submitted via: audiograbber 1.83.01
#
DISCID=b60bb50e
DTITLE=Various Artist - CDX 484
DYEAR=2009
DGENRE=Country
TTITLE0=Carrie Underwood - Cowboy Casanova
TTITLE1=Rosanne Cash - Sea of Heartbreak
TTITLE2=Tim McGraw - Southern Voice
TTITLE3=Buddy Jewell - Somebody Who Would Die for You
TTITLE4=Zona Jones - Day Off
TTITLE5=Rebel Hearts - Hard Rock Hotel
TTITLE6=Sean Hogan - Heartbreak Song
TTITLE7=Braden Gray - It Won't Be Over You
TTITLE8=Mike Aikken - Jagger and Jones
TTITLE9=Wayne Warner - Love Attack
TTITLE10=Jamie Tate - One Beer Away From Loving You
TTITLE11=Brenda Best - Woman
TTITLE12=T. Ray Walters - Wrappers and Raincoats
TTITLE13=Dustin Martin - Dog in the Yard
EXTD=
EXTT0=
EXTT1=
EXTT2=
EXTT3=
EXTT4=
EXTT5=
EXTT6=
EXTT7=
EXTT8=
EXTT9=
EXTT10=
EXTT11=
EXTT12=
EXTT13=
PLAYORDER=
